<?xml version="1.0" encoding="UTF-8" standalone="no"?>
<!DOCTYPE svg PUBLIC "-//W3C//DTD SVG 1.1//EN" "http://www.w3.org/Graphics/SVG/1.1/DTD/svg11.dtd">
<svg xmlns="http://www.w3.org/2000/svg" xmlns:xl="http://www.w3.org/1999/xlink" xmlns:dc="http://purl.org/dc/elements/1.1/" version="1.1" viewBox="-733.3635 -240.96317 317.21145 294.8111" width="317.21145" height="294.8111">
  <defs/>
  <g id="Canvas_1" fill="none" stroke-dasharray="none" stroke-opacity="1" fill-opacity="1" stroke="none">
    <title>Canvas 1</title>
    <g id="Canvas_1_Layer_1">
      <title>Layer 1</title>
      <g id="Graphic_450">
        <circle cx="-600.3105" cy="-103.6895" r="106.416690643998" fill="#1e4471"/>
      </g>
      <g id="Graphic_461">
        <circle cx="-638.01615" cy="-131.01615" r="9.98386784014493" fill="white"/>
      </g>
      <g id="Line_464">
        <path d="M -711 -118.28571 C -711 -118.28571 -686.4061 -72.14067 -628.5714 -50.285714 C -570.73674 -28.430757 -506.85714 -41.142857 -506.85714 -41.142857" stroke="white" stroke-linecap="round" stroke-linejoin="round" stroke-width="7"/>
      </g>
      <g id="Line_465">
        <path d="M -607.3098 -213.71429 C -607.3098 -213.71429 -641.48984 -163.13654 -638.2857 -100 C -635.0816 -36.863456 -596 9.142857 -596 9.142857" stroke="white" stroke-linecap="round" stroke-linejoin="round" stroke-width="7"/>
      </g>
      <g id="Line_466">
        <path d="M -665.14286 -193.14286 C -665.14286 -193.14286 -597.16544 -189.89156 -549.894 -153.14286 C -502.6225 -116.39415 -498.2857 -63.42857 -498.2857 -63.42857" stroke="white" stroke-linecap="round" stroke-linejoin="round" stroke-width="7"/>
      </g>
      <g id="Line_467">
        <path d="M -512 -172 C -512 -172 -582.9285 -181.27195 -629.7143 -138.85714 C -676.5001 -96.44234 -677.14286 -22.285714 -677.14286 -22.285714" stroke="white" stroke-linecap="round" stroke-linejoin="round" stroke-width="7"/>
      </g>
      <g id="Graphic_468">
        <circle cx="-572.01615" cy="-168.01615" r="9.98386784014491" fill="white"/>
      </g>
      <g id="Graphic_469">
        <circle cx="-622.01615" cy="-187.01615" r="9.98386784014492" fill="white"/>
      </g>
      <g id="Graphic_470">
        <circle cx="-628.5138" cy="-50.01615" r="9.98386784014491" fill="white"/>
      </g>
      <g id="Graphic_471">
        <circle cx="-667.159" cy="-70.01615" r="9.98386784014493" fill="white"/>
      </g>
      <g id="Graphic_449">
        <circle cx="-600.3105" cy="-107.91016" r="117.053200160986" stroke="#41bdeb" stroke-linecap="round" stroke-linejoin="round" stroke-width="32"/>
      </g>
      <g id="Graphic_431">
        <ellipse cx="-544.5714" cy="-81.43815" rx="46.2857882457449" ry="45.5619234941965" fill="#f8f8f8"/>
        <text transform="translate(-581.6 -113.33144)" fill="#235e00">
          <tspan font-family="Helvetica Neue" font-size="22" fill="#235e00" x="0" y="21">100 10 </tspan>
          <tspan font-family="Helvetica Neue" font-size="22" fill="#235e00" x="0" y="47.616">110 11</tspan>
          <tspan font-family="Helvetica Neue" font-size="22" fill="#235e00" x="0" y="74.231995">01 1001 </tspan>
        </text>
      </g>
      <g id="Graphic_268">
        <path d="M -575.3087 -48.43521 C -567.5025 -40.62901 -558.0237 -36.725966 -546.87195 -36.725966 C -535.72024 -36.725966 -526.2414 -40.62901 -518.4352 -48.43521 C -510.629 -56.241416 -506.72597 -65.720235 -506.72597 -76.87195 C -506.72597 -88.02367 -510.629 -97.50249 -518.4352 -105.3087 C -526.2414 -113.1149 -535.72024 -117.01794 -546.87195 -117.01794 C -558.0237 -117.01794 -567.5025 -113.1149 -575.3087 -105.3087 C -583.1149 -97.50249 -587.01794 -88.02367 -587.01794 -76.87195 C -587.01794 -65.720235 -583.1149 -56.241416 -575.3087 -48.43521 Z M -493.34397 -36.725966 L -449.0161 7.601896 L -462.3981 20.983892 L -506.72597 -23.34397 L -506.72597 -30.453155 L -509.2351 -32.96228 C -519.8292 -23.76211 -532.3747 -19.162096 -546.87195 -19.162096 C -563.04195 -19.162096 -576.7723 -24.737872 -588.0634 -35.88959 C -599.3545 -47.04131 -605 -60.70196 -605 -76.87195 C -605 -93.04195 -599.3545 -106.7723 -588.0634 -118.06341 C -576.7723 -129.35453 -563.04195 -135 -546.87195 -135 C -530.70196 -135 -517.0413 -129.35453 -505.8896 -118.06341 C -494.7379 -106.7723 -489.1621 -93.04195 -489.1621 -76.87195 C -489.1621 -62.37472 -493.7621 -49.829224 -502.9623 -39.23509 L -500.45316 -36.725966 Z" fill="black"/>
        <path d="M -575.3087 -48.43521 C -567.5025 -40.62901 -558.0237 -36.725966 -546.87195 -36.725966 C -535.72024 -36.725966 -526.2414 -40.62901 -518.4352 -48.43521 C -510.629 -56.241416 -506.72597 -65.720235 -506.72597 -76.87195 C -506.72597 -88.02367 -510.629 -97.50249 -518.4352 -105.3087 C -526.2414 -113.1149 -535.72024 -117.01794 -546.87195 -117.01794 C -558.0237 -117.01794 -567.5025 -113.1149 -575.3087 -105.3087 C -583.1149 -97.50249 -587.01794 -88.02367 -587.01794 -76.87195 C -587.01794 -65.720235 -583.1149 -56.241416 -575.3087 -48.43521 Z M -493.34397 -36.725966 L -449.0161 7.601896 L -462.3981 20.983892 L -506.72597 -23.34397 L -506.72597 -30.453155 L -509.2351 -32.96228 C -519.8292 -23.76211 -532.3747 -19.162096 -546.87195 -19.162096 C -563.04195 -19.162096 -576.7723 -24.737872 -588.0634 -35.88959 C -599.3545 -47.04131 -605 -60.70196 -605 -76.87195 C -605 -93.04195 -599.3545 -106.7723 -588.0634 -118.06341 C -576.7723 -129.35453 -563.04195 -135 -546.87195 -135 C -530.70196 -135 -517.0413 -129.35453 -505.8896 -118.06341 C -494.7379 -106.7723 -489.1621 -93.04195 -489.1621 -76.87195 C -489.1621 -62.37472 -493.7621 -49.829224 -502.9623 -39.23509 L -500.45316 -36.725966 Z" stroke="#666" stroke-linecap="round" stroke-linejoin="round" stroke-width="3"/>
      </g>
    </g>
  </g>
</svg>
